<svg xmlns="http://www.w3.org/2000/svg" viewBox="0 0 100 110" width="100" height="110" fill="currentColor" stroke="currentColor" role="img" aria-label="Ramo de aroeira monocromático">
  <path fill="none" stroke-width="5" stroke-linecap="round" stroke-linejoin="round"
        d="M42 100 C34 92 46 86 50 92 C54 98 44 104 40 96 C36 88 48 70 50 58 C52 46 49 34 58 26 C64 20 72 24 71 32 C70 39 61 40 59 33"/>
  <g stroke="none">
    <path d="M50 64 q-10 -4 -14 -12 q10 -1 16 6 z"/>
    <path d="M52 74 q-10 -3 -14 -11 q10 -1 16 6 z"/>
    <path d="M53 84 q-9 -3 -13 -10 q9 -1 14 5 z"/>
    <circle cx="62" cy="22" r="3"/><circle cx="68" cy="20" r="3.2"/><circle cx="65" cy="27" r="2.9"/>
    <circle cx="71" cy="25" r="2.7"/><circle cx="67" cy="32" r="2.8"/><circle cx="73" cy="30" r="2.5"/>
  </g>
</svg>
